:version 1.10
:name ASF
:units
  mass 1
  length 1
  angle deg
:documentation
  ASF file generated by Kaydara
:root
  axis xyz
  order  tx ty tz rx ry rz
  position 0 0 0
  orientation 0 0 0
:bonedata
  begin
    id 1
    name RightUpLegDummy
    direction -0.65628 -0.754516 0.00165102
    length 4.76918
    axis 0 0 0 xyz
  end
  begin
    id 2
    name RightUpLeg
    direction -0.145584 -0.923362 0.355256
    length 17.9961
    axis -24.7611 -13.1006 1.78531 xyz
    dof rx ry rz
  end
  begin
    id 3
    name RightLeg
    direction 0.263379 0.172355 -0.949171
    length 13.3386
    axis 89.6202 -21.1929 12.3855 xyz
    dof rx ry rz
  end
  begin
    id 4
    name RightFoot
    direction 0.224283 -0.968777 -0.105675
    length 5.86697
    axis 56.995 -39.6905 17.3365 xyz
    dof rx ry rz
  end
  begin
    id 5
    name RightToes
    direction -0.0806345 -0.9037 0.420506
    length 4.75197
    axis 146.825 -39.7828 17.6019 xyz
    dof rx ry rz
  end
  begin
    id 6
    name SpineDummy
    direction -3.39852e-014 1 9.33296e-014
    length 8.13779
    axis 0 0 0 xyz
  end
  begin
    id 7
    name Spine
    direction -0.156609 0.733703 0.661176
    length 7.14978
    axis 41.2365 5.68757 17.0844 xyz
    dof rx ry rz
  end
  begin
    id 8
    name Spine1
    direction 0 0 0
    length 0
    axis 42.8809 47.8308 -3.36039 xyz
    dof rx ry rz
  end
  begin
    id 9
    name HEadDummy
    direction 0.546431 0.701947 0.456819
    length 3.55512
    axis 42.8809 47.8308 -3.36039 xyz
  end
  begin
    id 10
    name HEad
    direction 0.23444 0.828559 0.508457
    length 7.35827
    axis 51.1864 49.2662 27.4903 xyz
    dof rx ry rz
  end
  begin
    id 11
    name LeftShoulder1Dummy
    direction 0.431183 0.475873 -0.766568
    length 2.49352
    axis 42.8809 47.8308 -3.36039 xyz
  end
  begin
    id 12
    name LeftShoulder1
    direction 0.268187 -0.383402 -0.883786
    length 4.48604
    axis -119.517 0.106469 35.1736 xyz
    dof rx ry rz
  end
  begin
    id 13
    name LeftArm
    direction 0.380567 -0.703221 -0.600541
    length 10.1142
    axis -5.41825 36.2925 7.8293 xyz
    dof rx ry rz
  end
  begin
    id 14
    name LeftForeArm
    direction 0.541071 -0.732356 -0.413396
    length 9.39839
    axis 4.65387 33.7604 7.81644 xyz
    dof rx ry rz
  end
  begin
    id 15
    name LeftHand
    direction 0.847511 -0.389379 -0.360707
    length 3.66142
    axis 7.65593 21.1436 -24.6758 xyz
    dof rx ry rz
  end
  begin
    id 16
    name RightShoulderDummy
    direction -0.692546 0.541855 0.476208
    length 2.49352
    axis 42.8809 47.8308 -3.36039 xyz
  end
  begin
    id 17
    name RightShoulder
    direction -0.870808 -0.316653 0.376065
    length 4.48602
    axis 141.571 51.133 -100.254 xyz
    dof rx ry rz
  end
  begin
    id 18
    name RightArm
    direction 0.366897 -0.87275 0.322015
    length 10.1142
    axis 92.3258 71.2036 138.917 xyz
    dof rx ry rz
  end
  begin
    id 19
    name RightForeArm
    direction 0.702487 -0.694568 0.155197
    length 9.39835
    axis 153.863 41.5092 -176.604 xyz
    dof rx ry rz
  end
  begin
    id 20
    name RightHand
    direction 0.79502 -0.601276 0.0800636
    length 3.66142
    axis 154.247 4.59222 142.9 xyz
    dof rx ry rz
  end
  begin
    id 21
    name LeftUpLegDummy
    direction 0.65628 -0.754516 0.00165102
    length 4.76919
    axis 0 0 0 xyz
  end
  begin
    id 22
    name LeftUpLeg
    direction -0.1277 -0.689368 0.713067
    length 17.9961
    axis -48.3385 -17.8675 0.791927 xyz
    dof rx ry rz
  end
  begin
    id 23
    name LeftLeg
    direction 0.109849 -0.991246 -0.0732378
    length 13.3386
    axis -2.05791 -7.30784 1.72042 xyz
    dof rx ry rz
  end
  begin
    id 24
    name LeftFoot
    direction 0.0448355 -0.272614 0.961078
    length 5.86697
    axis -18.7733 -7.89606 10.2113 xyz
    dof rx ry rz
  end
  begin
    id 25
    name LeftToes
    direction -0.18506 0.293668 0.937823
    length 4.75197
    axis 71.2267 -7.89606 10.2113 xyz
    dof rx ry rz
  end
:hierarchy
  begin
    root RightUpLegDummy SpineDummy LeftUpLegDummy
    RightUpLegDummy RightUpLeg
    RightUpLeg RightLeg
    RightLeg RightFoot
    RightFoot RightToes
    SpineDummy Spine
    Spine Spine1
    Spine1 HEadDummy LeftShoulder1Dummy RightShoulderDummy
    HEadDummy HEad
    LeftShoulder1Dummy LeftShoulder1
    LeftShoulder1 LeftArm
    LeftArm LeftForeArm
    LeftForeArm LeftHand
    RightShoulderDummy RightShoulder
    RightShoulder RightArm
    RightArm RightForeArm
    RightForeArm RightHand
    LeftUpLegDummy LeftUpLeg
    LeftUpLeg LeftLeg
    LeftLeg LeftFoot
    LeftFoot LeftToes
  end

:SAMPLES-PER-SECOND 30
:FULLY-SPECIFIED
:DEGREES
191
root  -12.5261 13.5967 -23.3129 59.4917 -20.1278 -156.008
RightUpLeg  -22.8086 8.15221 -53.0914
RightLeg  -101.97 -10.461 18.2674
RightFoot  18.8837 13.1632 -29.0376
RightToes  -1.27222e-014 -6.36111e-015 6.36111e-015
Spine  -8.50443 -16.0026 -4.93419
Spine1  12.1986 -17.9984 62.3369
HEad  45.6094 -22.7857 -16.5615
LeftShoulder1  6.36111e-015 -1.33558e-015 6.49777e-015
LeftArm  53.2128 41.0886 -12.6489
LeftForeArm  26.3619 -25.0316 -20.4208
LeftHand  14.3043 19.721 21.8566
RightShoulder  -4.77083e-015 -6.36111e-015 -3.18055e-015
RightArm  77.9672 -38.4625 -40.7708
RightForeArm  7.23092 2.9238 14.6188
RightHand  6.08343 -8.81703 -21.1842
LeftUpLeg  2.423 17.5373 69.2998
LeftLeg  -32.2306 17.8882 -13.4773
LeftFoot  -13.3418 1.98903 -11.1294
LeftToes  9.54166e-015 -1.91609e-011 -2.3878e-011
192
root  -14.2197 13.8617 -24.1992 54.1515 -28.8103 -165.566
RightUpLeg  -13.4002 9.74786 -48.8574
RightLeg  -103.539 -10.9099 19.9505
RightFoot  20.279 12.5453 -27.9415
RightToes  -1.27222e-014 -6.36111e-015 6.36111e-015
Spine  -3.68433 -17.2349 -9.19951
Spine1  13.6894 -17.9135 62.7368
HEad  47.9157 -21.1068 -19.3878
LeftShoulder1  6.36111e-015 -1.33558e-015 6.49777e-015
LeftArm  62.4824 45.7098 -13.5822
LeftForeArm  22.7305 -29.0782 -19.0918
LeftHand  11.64 16.5038 19.5693
RightShoulder  -4.77083e-015 -6.36111e-015 -3.18055e-015
RightArm  93.122 -39.7486 -60.1008
RightForeArm  10.6101 5.46408 14.7265
RightHand  8.01253 -10.2315 -26.9592
LeftUpLeg  -7.8774 18.9216 68.6724
LeftLeg  -29.5084 16.1785 -11.5107
LeftFoot  -17.4482 1.56429 -10.9158
LeftToes  9.54166e-015 -1.91609e-011 -2.3878e-011
193
root  -15.7548 14.1881 -24.5109 56.5193 -39.7284 -178.948
RightUpLeg  -6.14438 11.8147 -42.7487
RightLeg  -101.061 -11.5186 27.2831
RightFoot  21.1766 9.49565 -23.1631
RightToes  -1.27222e-014 -6.36111e-015 6.36111e-015
Spine  -1.93439 -16.3615 -9.84773
Spine1  16.3873 -16.136 57.3186
HEad  48.1903 -20.5418 -19.1562
LeftShoulder1  6.36111e-015 -1.33558e-015 6.49777e-015
LeftArm  64.874 48.9593 -23.6556
LeftForeArm  14.7218 -27.5612 -14.1746
LeftHand  12.2763 17.9414 18.8628
RightShoulder  -4.77083e-015 -6.36111e-015 -3.18055e-015
RightArm  104.25 -37.2587 -75.122
RightForeArm  14.2646 10.3425 12.2178
RightHand  10.5321 -9.71915 -37.6531
LeftUpLeg  -13.5719 22.371 65.0619
LeftLeg  -30.6316 8.69376 -10.6754
LeftFoot  -16.1033 1.23596 -7.85567
LeftToes  9.54166e-015 -1.91609e-011 -2.3878e-011
194
root  -16.9317 14.7533 -24.2538 72.5612 -53.6417 160.926
RightUpLeg  -5.59522 7.71438 -40.6106
RightLeg  -94.1063 -14.6241 21.7432
RightFoot  19.8231 8.42889 -21.4421
RightToes  -1.27222e-014 -6.36111e-015 6.36111e-015
Spine  -4.31785 -15.1649 -11.2221
Spine1  19.3553 -12.9171 44.5076
HEad  47.2435 -25.0887 -16.6266
LeftShoulder1  6.36111e-015 -1.33558e-015 6.49777e-015
LeftArm  63.1952 46.557 -30.4064
LeftForeArm  13.833 -25.7637 -15.1808
LeftHand  11.4385 20.6325 11.4101
RightShoulder  -4.77083e-015 -6.36111e-015 -3.18055e-015
RightArm  108.842 -34.9126 -83.8052
RightForeArm  16.9411 13.1893 10.5999
RightHand  12.3445 -8.34404 -47.2364
LeftUpLeg  -15.1846 22.2381 60.703
LeftLeg  -32.9663 6.41958 -10.0908
LeftFoot  -13.7322 1.14058 -6.35607
LeftToes  9.54166e-015 -1.91609e-011 -2.3878e-011
